<mxfile host="app.diagrams.net" agent="Mozilla/5.0 (X11; Ubuntu; Linux x86_64; rv:136.0) Gecko/20100101 Firefox/136.0" version="26.2.13">
  <diagram name="Page-1" id="Y8Nyqngtibll2K6ONHRQ">
    <mxGraphModel dx="937" dy="532" grid="1" gridSize="10" guides="1" tooltips="1" connect="1" arrows="1" fold="1" page="1" pageScale="1" pageWidth="850" pageHeight="1100" math="0" shadow="0">
      <root>
        <mxCell id="0" />
        <mxCell id="1" parent="0" />
        <mxCell id="M4K6O9EiS7rQOvm9QgWb-6" style="edgeStyle=orthogonalEdgeStyle;rounded=0;orthogonalLoop=1;jettySize=auto;html=1;exitX=1;exitY=0.25;exitDx=0;exitDy=0;entryX=0;entryY=0.25;entryDx=0;entryDy=0;" edge="1" parent="1" source="M4K6O9EiS7rQOvm9QgWb-1" target="M4K6O9EiS7rQOvm9QgWb-2">
          <mxGeometry relative="1" as="geometry" />
        </mxCell>
        <mxCell id="M4K6O9EiS7rQOvm9QgWb-1" value="&lt;div&gt;Protocol&lt;/div&gt;&lt;div&gt;Writer&lt;/div&gt;" style="rounded=0;whiteSpace=wrap;html=1;" vertex="1" parent="1">
          <mxGeometry x="240" y="280" width="80" height="120" as="geometry" />
        </mxCell>
        <mxCell id="M4K6O9EiS7rQOvm9QgWb-5" style="edgeStyle=orthogonalEdgeStyle;rounded=0;orthogonalLoop=1;jettySize=auto;html=1;exitX=1;exitY=0.5;exitDx=0;exitDy=0;entryX=0;entryY=0.5;entryDx=0;entryDy=0;" edge="1" parent="1" source="M4K6O9EiS7rQOvm9QgWb-2" target="M4K6O9EiS7rQOvm9QgWb-4">
          <mxGeometry relative="1" as="geometry" />
        </mxCell>
        <mxCell id="M4K6O9EiS7rQOvm9QgWb-14" value="aff" style="edgeLabel;html=1;align=center;verticalAlign=middle;resizable=0;points=[];" vertex="1" connectable="0" parent="M4K6O9EiS7rQOvm9QgWb-5">
          <mxGeometry x="-0.2983" relative="1" as="geometry">
            <mxPoint y="-10" as="offset" />
          </mxGeometry>
        </mxCell>
        <mxCell id="M4K6O9EiS7rQOvm9QgWb-7" style="edgeStyle=orthogonalEdgeStyle;rounded=0;orthogonalLoop=1;jettySize=auto;html=1;exitX=0;exitY=0.75;exitDx=0;exitDy=0;entryX=1;entryY=0.75;entryDx=0;entryDy=0;" edge="1" parent="1" source="M4K6O9EiS7rQOvm9QgWb-2" target="M4K6O9EiS7rQOvm9QgWb-1">
          <mxGeometry relative="1" as="geometry" />
        </mxCell>
        <mxCell id="M4K6O9EiS7rQOvm9QgWb-2" value="&lt;div&gt;Protocol&lt;/div&gt;&lt;div&gt;Reader&lt;/div&gt;" style="rounded=0;whiteSpace=wrap;html=1;" vertex="1" parent="1">
          <mxGeometry x="400" y="280" width="80" height="120" as="geometry" />
        </mxCell>
        <mxCell id="M4K6O9EiS7rQOvm9QgWb-4" value="7seg display" style="rounded=0;whiteSpace=wrap;html=1;" vertex="1" parent="1">
          <mxGeometry x="520" y="280" width="80" height="120" as="geometry" />
        </mxCell>
        <mxCell id="M4K6O9EiS7rQOvm9QgWb-8" value="" style="endArrow=classic;html=1;rounded=0;entryX=0;entryY=0.75;entryDx=0;entryDy=0;" edge="1" parent="1" target="M4K6O9EiS7rQOvm9QgWb-1">
          <mxGeometry width="50" height="50" relative="1" as="geometry">
            <mxPoint x="160" y="370" as="sourcePoint" />
            <mxPoint x="220" y="380" as="targetPoint" />
          </mxGeometry>
        </mxCell>
        <mxCell id="M4K6O9EiS7rQOvm9QgWb-13" value="data" style="edgeLabel;html=1;align=center;verticalAlign=middle;resizable=0;points=[];" vertex="1" connectable="0" parent="M4K6O9EiS7rQOvm9QgWb-8">
          <mxGeometry x="-0.7181" y="3" relative="1" as="geometry">
            <mxPoint y="-7" as="offset" />
          </mxGeometry>
        </mxCell>
        <mxCell id="M4K6O9EiS7rQOvm9QgWb-9" value="" style="endArrow=classic;html=1;rounded=0;entryX=0;entryY=0.75;entryDx=0;entryDy=0;" edge="1" parent="1">
          <mxGeometry width="50" height="50" relative="1" as="geometry">
            <mxPoint x="160" y="339.5" as="sourcePoint" />
            <mxPoint x="240" y="339.5" as="targetPoint" />
          </mxGeometry>
        </mxCell>
        <mxCell id="M4K6O9EiS7rQOvm9QgWb-12" value="addr" style="edgeLabel;html=1;align=center;verticalAlign=middle;resizable=0;points=[];" vertex="1" connectable="0" parent="M4K6O9EiS7rQOvm9QgWb-9">
          <mxGeometry x="-0.0284" relative="1" as="geometry">
            <mxPoint x="-29" y="-9" as="offset" />
          </mxGeometry>
        </mxCell>
        <mxCell id="M4K6O9EiS7rQOvm9QgWb-10" value="" style="endArrow=classic;html=1;rounded=0;entryX=0;entryY=0.75;entryDx=0;entryDy=0;" edge="1" parent="1">
          <mxGeometry width="50" height="50" relative="1" as="geometry">
            <mxPoint x="160" y="300" as="sourcePoint" />
            <mxPoint x="240" y="300" as="targetPoint" />
          </mxGeometry>
        </mxCell>
        <mxCell id="M4K6O9EiS7rQOvm9QgWb-11" value="start" style="edgeLabel;html=1;align=center;verticalAlign=middle;resizable=0;points=[];" vertex="1" connectable="0" parent="M4K6O9EiS7rQOvm9QgWb-10">
          <mxGeometry x="-0.65" y="-1" relative="1" as="geometry">
            <mxPoint y="-11" as="offset" />
          </mxGeometry>
        </mxCell>
      </root>
    </mxGraphModel>
  </diagram>
</mxfile>
